<svg xmlns="http://www.w3.org/2000/svg" viewBox="0 0 24 24" id="chatingsquare">
  <defs>
    <linearGradient id="a" x1="13.924" x2="3.565" y1="19.666" y2="9.307" gradientUnits="userSpaceOnUse">
      <stop offset="0" stop-color="#59c3eb" class="stopColoreb595a svgShape"></stop>
      <stop offset="1" stop-color="#75cff1" class="stopColorf18875 svgShape"></stop>
    </linearGradient>
    <linearGradient id="b" x1="21.456" x2="8.569" y1="13.805" y2=".918" gradientUnits="userSpaceOnUse">
      <stop offset="0" stop-color="#62b4d3" class="stopColor629ad3 svgShape"></stop>
      <stop offset="1" stop-color="#87ddfd" class="stopColor79aed4 svgShape"></stop>
    </linearGradient>
  </defs>
  <g fill="#000000" class="color000000 svgShape">
    <path fill="#ffffff" d="M6.073,23.5A2.176,2.176,0,0,1,3.9,21.32v-.153A4.628,4.628,0,0,1,1.88,20,4.869,4.869,0,0,1,.5,16.47V12.4A4.662,4.662,0,0,1,3.658,7.778,1.977,1.977,0,0,1,3.5,7V6.25A5.757,5.757,0,0,1,9.25.5h8.5A5.757,5.757,0,0,1,23.5,6.25v5.1A5.743,5.743,0,0,1,21.884,15.5a5.738,5.738,0,0,1-4.134,1.6h-.16a2,2,0,0,1-.527-.071,4.758,4.758,0,0,1-.162.867A4.661,4.661,0,0,1,12.19,21.37H9.924L7.281,23.129A2.139,2.139,0,0,1,6.073,23.5Z" class="colorffffff svgShape"></path>
    <path fill="url(#a)" d="M15.59,12.4v4.07a3.629,3.629,0,0,1-.13,1.01,3.155,3.155,0,0,1-3.27,2.39H9.47L6.45,21.88a.671.671,0,0,1-1.05-.56V19.87a3.4,3.4,0,0,1-2.46-.93A3.4,3.4,0,0,1,2,16.47V12.4A3.183,3.183,0,0,1,5,9.02c.13-.01.26-.02.4-.02h6.79A3.212,3.212,0,0,1,15.59,12.4Z"></path>
    <path fill="url(#b)" d="M17.75,2H9.25A4.246,4.246,0,0,0,5,6.25V7a.5.5,0,0,0,.5.5h6.69a4.9,4.9,0,0,1,4.9,4.9v2.7a.5.5,0,0,0,.5.5h.16a4.225,4.225,0,0,0,3.08-1.17A4.225,4.225,0,0,0,22,11.35V6.25A4.246,4.246,0,0,0,17.75,2Z"></path>
  </g>
</svg>
