<svg id="vector" xmlns="http://www.w3.org/2000/svg" width="61.33" height="59.67" viewBox="0 0 61.33 59.67"><defs><clipPath id="clip_path_0"><path d="M5.29,29.84c0,13.58 11.35,24.67 25.26,24.68 14.11,0 25.48,-11 25.49,-24.68S44.69,5.15 30.7,5.14 5.29,16.19 5.29,29.84ZM28.37,28.84 L40.37,17.49a2.35,2.35 0,0 1,2.52 -0.58,2.24 2.24,0 0,1 1.56,2 2.28,2.28 0,0 1,-0.58 1.77q-2,2.4 -3.94,4.82Q34.36,32.22 28.83,39a2.41,2.41 0,0 1,-3.93 0l-7.4,-9a2.29,2.29 0,0 1,0.19 -3.32l0.8,-0.78a2.38,2.38 0,0 1,3.5 0.09l4.19,4.54 0.21,0.22Z M 0,0"/></clipPath></defs><g id="g_0"><path fill="#32c832" d="M0,59.67H61.33V0H0Z" clip-path="url(#clip_path_0)"/></g></svg>