<svg width="323" height="50" viewBox="0 0 323 50" fill="none" xmlns="http://www.w3.org/2000/svg">
<path d="M27 25.5H287" stroke="#141F55" stroke-width="3"/>
<circle cx="25" cy="25" r="25" fill="#191446"/>
<circle cx="25" cy="25" r="19" fill="#11FFEE"/>
<g clip-path="url(#clip0_1_35)">
<path d="M19.2432 38.669L10.3243 29.5655C10.3243 29.5655 10 28.2414 10.3243 27.7448L12.7568 25.2621C12.7568 25.2621 14.054 24.7655 14.5405 25.2621L20.054 30.8897L35.2973 15.331C35.2973 15.331 36.5946 14.8345 37.0811 15.331L39.5135 17.8138C39.5135 17.8138 40 19.1379 39.5135 19.6345L21.027 38.669C21.027 38.669 19.7297 39.1655 19.2432 38.669Z" fill="white"/>
</g>
<circle cx="116" cy="25" r="25" fill="#191446"/>
<circle cx="116" cy="25" r="19" fill="#11FFEE"/>
<circle cx="207" cy="25" r="25" fill="#191446"/>
<circle cx="207" cy="25" r="19" fill="#11FFEE"/>
<circle cx="298" cy="25" r="25" fill="#191446"/>
<circle cx="298" cy="25" r="19" fill="#11FFEE"/>
<path d="M110.063 38.669L101.144 29.5655C101.144 29.5655 100.82 28.2414 101.144 27.7448L103.577 25.2621C103.577 25.2621 104.874 24.7655 105.36 25.2621L110.874 30.8897L126.117 15.331C126.117 15.331 127.414 14.8345 127.901 15.331L130.333 17.8138C130.333 17.8138 130.82 19.1379 130.333 19.6345L111.847 38.669C111.847 38.669 110.55 39.1655 110.063 38.669Z" fill="white"/>
<path d="M201.063 38.669L192.144 29.5655C192.144 29.5655 191.82 28.2414 192.144 27.7448L194.577 25.2621C194.577 25.2621 195.874 24.7655 196.36 25.2621L201.874 30.8897L217.117 15.331C217.117 15.331 218.414 14.8345 218.901 15.331L221.333 17.8138C221.333 17.8138 221.82 19.1379 221.333 19.6345L202.847 38.669C202.847 38.669 201.55 39.1655 201.063 38.669Z" fill="white"/>
<path d="M294.063 38.669L285.144 29.5655C285.144 29.5655 284.82 28.2414 285.144 27.7448L287.577 25.2621C287.577 25.2621 288.874 24.7655 289.36 25.2621L294.874 30.8897L310.117 15.331C310.117 15.331 311.414 14.8345 311.901 15.331L314.333 17.8138C314.333 17.8138 314.82 19.1379 314.333 19.6345L295.847 38.669C295.847 38.669 294.55 39.1655 294.063 38.669Z" fill="white"/>
<defs>
<clipPath id="clip0_1_35">
<rect width="30" height="24" fill="white" transform="translate(10 15)"/>
</clipPath>
</defs>
</svg>
