<svg width="323" height="50" viewBox="0 0 323 50" fill="none" xmlns="http://www.w3.org/2000/svg">
<path d="M27 25.5H287" stroke="#141F55" stroke-width="3"/>
<circle cx="25" cy="25" r="25" fill="#191446"/>
<circle cx="25" cy="25" r="19" fill="#11FFEE"/>
<path d="M28.1374 16.5455V34H24.4471V20.0483H24.3448L20.3477 22.554V19.2812L24.6687 16.5455H28.1374Z" fill="white"/>
<circle cx="116" cy="25" r="25" fill="#191446"/>
<circle cx="116" cy="25" r="19" fill="#D9D9D9"/>
<path d="M109.856 34V31.3409L116.069 25.5881C116.598 25.0767 117.041 24.6165 117.399 24.2074C117.762 23.7983 118.038 23.3977 118.225 23.0057C118.413 22.608 118.507 22.179 118.507 21.7188C118.507 21.2074 118.39 20.767 118.157 20.3977C117.924 20.0227 117.606 19.7358 117.203 19.5369C116.799 19.3324 116.342 19.2301 115.831 19.2301C115.297 19.2301 114.831 19.3381 114.433 19.554C114.035 19.7699 113.728 20.0795 113.512 20.483C113.297 20.8864 113.189 21.3665 113.189 21.9233H109.686C109.686 20.7812 109.944 19.7898 110.461 18.9489C110.978 18.108 111.703 17.4574 112.635 16.9972C113.566 16.5369 114.64 16.3068 115.856 16.3068C117.106 16.3068 118.194 16.5284 119.12 16.9716C120.052 17.4091 120.777 18.017 121.294 18.7955C121.811 19.5739 122.069 20.4659 122.069 21.4716C122.069 22.1307 121.939 22.7812 121.677 23.4233C121.422 24.0653 120.964 24.7784 120.305 25.5625C119.646 26.3409 118.717 27.2756 117.518 28.3665L114.97 30.8636V30.983H122.299V34H109.856Z" fill="#747989"/>
<circle cx="207" cy="25" r="25" fill="#191446"/>
<circle cx="207" cy="25" r="19" fill="#D9D9D9"/>
<path d="M206.956 34.2386C205.684 34.2386 204.55 34.0199 203.556 33.5824C202.567 33.1392 201.786 32.5312 201.212 31.7585C200.644 30.9801 200.351 30.0824 200.334 29.0653H204.05C204.073 29.4915 204.212 29.8665 204.468 30.1903C204.729 30.5085 205.076 30.7557 205.507 30.9318C205.939 31.108 206.425 31.196 206.965 31.196C207.527 31.196 208.025 31.0966 208.456 30.8977C208.888 30.6989 209.226 30.4233 209.471 30.071C209.715 29.7187 209.837 29.3125 209.837 28.8523C209.837 28.3864 209.706 27.9744 209.445 27.6165C209.189 27.2528 208.82 26.9687 208.337 26.7642C207.86 26.5597 207.292 26.4574 206.632 26.4574H205.005V23.7472H206.632C207.189 23.7472 207.681 23.6506 208.107 23.4574C208.539 23.2642 208.874 22.9972 209.113 22.6562C209.351 22.3097 209.471 21.9062 209.471 21.446C209.471 21.0085 209.365 20.625 209.155 20.2955C208.951 19.9602 208.661 19.6989 208.286 19.5114C207.917 19.3239 207.485 19.2301 206.99 19.2301C206.49 19.2301 206.033 19.321 205.618 19.5028C205.203 19.679 204.871 19.9318 204.621 20.2614C204.371 20.5909 204.238 20.9773 204.221 21.4205H200.684C200.701 20.4148 200.988 19.5284 201.544 18.7614C202.101 17.9943 202.851 17.3949 203.794 16.9631C204.743 16.5256 205.814 16.3068 207.007 16.3068C208.212 16.3068 209.266 16.5256 210.169 16.9631C211.073 17.4006 211.775 17.9915 212.275 18.7358C212.78 19.4744 213.03 20.304 213.025 21.2244C213.03 22.2017 212.726 23.017 212.113 23.6705C211.505 24.3239 210.712 24.7386 209.735 24.9148V25.0511C211.019 25.2159 211.996 25.6619 212.667 26.3892C213.343 27.1108 213.678 28.0142 213.672 29.0994C213.678 30.0938 213.391 30.9773 212.811 31.75C212.238 32.5227 211.445 33.1307 210.434 33.5739C209.422 34.017 208.263 34.2386 206.956 34.2386Z" fill="#747989"/>
<circle cx="298" cy="25" r="25" fill="#191446"/>
<circle cx="298" cy="25" r="19" fill="#DDDDDD"/>
<path d="M291.518 30.9318V28.0256L298.805 16.5455H301.31V20.5682H299.827L295.234 27.8381V27.9744H305.589V30.9318H291.518ZM299.896 34V30.0455L299.964 28.7585V16.5455H303.424V34H299.896Z" fill="#747989"/>
</svg>
