<svg width="152" height="173" viewBox="0 0 152 173" fill="none" xmlns="http://www.w3.org/2000/svg">
<path d="M20.4486 165.446C19.6567 165.729 18.0964 166.201 16.2538 166.201C14.1838 166.201 12.4824 165.674 11.1495 164.393C9.97339 163.253 9.2442 161.43 9.2442 159.292C9.26772 155.205 12.059 152.218 16.638 152.218C18.2218 152.218 19.4528 152.564 20.0409 152.847L19.6175 154.285C18.8883 153.963 17.9788 153.695 16.5988 153.695C13.2743 153.695 11.1103 155.771 11.1103 159.198C11.1103 162.672 13.1959 164.723 16.3792 164.723C17.5318 164.723 18.3237 164.558 18.7315 164.354V160.266H15.9558V158.844H20.4564V165.446H20.4486Z" fill="#5C5C5C"/>
<path d="M28.6656 152.359H30.4298V164.574H36.2633V166.059H28.6656V152.359Z" fill="#5C5C5C"/>
<path d="M54.8223 159.064C54.8223 163.78 51.9682 166.279 48.4791 166.279C44.8724 166.279 42.3398 163.473 42.3398 159.331C42.3398 154.985 45.037 152.139 48.683 152.139C52.4152 152.139 54.8223 155 54.8223 159.064ZM44.2216 159.292C44.2216 162.216 45.8054 164.841 48.581 164.841C51.3802 164.841 52.9562 162.263 52.9562 159.15C52.9562 156.431 51.537 153.585 48.5967 153.585C45.68 153.578 44.2216 156.281 44.2216 159.292Z" fill="#5C5C5C"/>
<path d="M62.6551 152.54C63.4235 152.375 64.6388 152.257 65.8776 152.257C67.6418 152.257 68.7787 152.563 69.6255 153.255C70.3311 153.782 70.7624 154.599 70.7624 155.676C70.7624 156.996 69.8921 158.152 68.4494 158.686V158.726C69.7431 159.048 71.2642 160.125 71.2642 162.161C71.2642 163.34 70.8016 164.236 70.1116 164.904C69.1629 165.776 67.6183 166.185 65.3915 166.185C64.1762 166.185 63.2431 166.106 62.6551 166.02V152.54ZM64.4193 158.152H66.0187C67.8848 158.152 68.9747 157.177 68.9747 155.857C68.9747 154.253 67.7594 153.624 65.9717 153.624C65.1641 153.624 64.6937 153.687 64.4114 153.75V158.152H64.4193ZM64.4193 164.715C64.7642 164.778 65.2739 164.794 65.9011 164.794C67.728 164.794 69.4059 164.126 69.4059 162.129C69.4059 160.258 67.8064 159.488 65.8776 159.488H64.4193V164.715Z" fill="#5C5C5C"/>
<path d="M86.0518 166.052L84.3111 163.025C83.6055 161.87 83.1586 161.115 82.7273 160.322H82.6881C82.3039 161.115 81.9197 161.846 81.2062 163.041L79.5675 166.052H77.5446L81.7237 159.127L77.7093 152.359H79.7557L81.5591 155.566C82.0687 156.462 82.4529 157.154 82.8136 157.885H82.8763C83.2605 157.075 83.6055 156.447 84.1151 155.566L85.9812 152.359H88.0041L83.8485 159.025L88.1061 166.052H86.0518Z" fill="#5C5C5C"/>
<path d="M105.787 152.524C106.642 152.383 107.755 152.257 109.174 152.257C110.915 152.257 112.193 152.666 113.008 153.397C113.761 154.049 114.2 155.039 114.2 156.258C114.2 157.499 113.831 158.474 113.149 159.182C112.216 160.18 110.695 160.683 108.97 160.683C108.445 160.683 107.959 160.659 107.551 160.565V166.051H105.787V152.524ZM107.551 159.127C107.935 159.229 108.421 159.268 109.009 159.268C111.134 159.268 112.436 158.23 112.436 156.344C112.436 154.536 111.158 153.664 109.213 153.664C108.445 153.664 107.857 153.727 107.551 153.805V159.127Z" fill="#11FFEE"/>
<path d="M122.95 161.744L121.531 166.052H119.704L124.346 152.359H126.471L131.128 166.052H129.246L127.788 161.744H122.95ZM127.427 160.369L126.086 156.431C125.781 155.535 125.577 154.725 125.381 153.931H125.342C125.138 154.741 124.918 155.574 124.652 156.407L123.311 160.369H127.427Z" fill="#11FFEE"/>
<path d="M140.161 166.052V160.243L135.84 152.359H137.848L139.776 156.14C140.302 157.178 140.709 158.011 141.133 158.962H141.172C141.556 158.066 142.027 157.178 142.552 156.14L144.52 152.359H146.527L141.948 160.219V166.052H140.161Z" fill="#11FFEE"/>
<path fill-rule="evenodd" clip-rule="evenodd" d="M45.829 61.5994L54.5243 74.6471L13.8389 135.822H58.5466L77.5446 104.673L96.3231 135.822H141.925L101.239 74.4192L141.031 14.5884H96.0957L78.2189 44.4016L67.9398 27.2667L62.9296 35.0481L78.2189 60.5305L100.792 22.9043H125.53L91.2737 74.4113L126.455 127.506H101.004L77.5917 88.6616L53.8971 127.506H29.3399L64.4977 74.6393L50.7294 53.983L45.829 61.5994Z" fill="url(#paint0_linear_12_67)"/>
<path fill-rule="evenodd" clip-rule="evenodd" d="M39.9955 12.0103C49.2867 12.0103 56.8216 19.5638 56.8216 28.878C56.8216 38.1921 49.2867 45.7456 39.9955 45.7456C30.7042 45.7456 23.1693 38.1921 23.1693 28.878C23.1693 19.5638 30.7042 12.0103 39.9955 12.0103Z" fill="#11FFEE"/>
<defs>
<linearGradient id="paint0_linear_12_67" x1="93.6462" y1="135.822" x2="95.4052" y2="21.0559" gradientUnits="userSpaceOnUse">
<stop stop-color="#161347"/>
<stop offset="0.5382" stop-color="#0576BB"/>
<stop offset="1" stop-color="#01FFC9"/>
</linearGradient>
</defs>
</svg>
