<svg width="30" height="30" viewBox="0 0 30 30" fill="none" xmlns="http://www.w3.org/2000/svg">
<path d="M0.0125523 15.8741C0.0125523 15.2903 0.0125523 14.7003 0.0125523 14.1166C0.0313807 14.035 0.0564851 13.9471 0.0627612 13.8655C0.207112 11.7753 0.759411 9.79184 1.77614 7.959C4.11086 3.73471 7.65059 1.14866 12.3953 0.238519C12.9665 0.125537 13.5501 0.0815986 14.1276 0C14.7112 0 15.3012 0 15.8849 0C16.0983 0.0251073 16.3054 0.0502144 16.5188 0.0753216C19.707 0.4331 22.5313 1.63197 24.9225 3.77237C28.0794 6.59693 29.7739 10.1496 29.981 14.3802C30.1128 17.0855 29.5605 19.6715 28.23 22.0379C25.4748 26.9527 21.2572 29.6266 15.6275 29.9718C12.9225 30.1413 10.3431 29.545 7.9644 28.2331C3.73429 25.9044 1.14853 22.358 0.238493 17.6065C0.131799 17.0353 0.0815896 16.4515 0 15.8741H0.0125523ZM14.4978 8.03433C14.3849 8.03433 14.3096 8.03433 14.2342 8.03433C11.9874 8.07826 9.76565 8.38583 7.55645 8.8001C7.46859 8.81893 7.35562 8.95074 7.33679 9.04489C7.0983 10.2249 6.84725 11.4113 6.65269 12.5976C6.55227 13.2064 6.55227 13.8341 6.50834 14.4618H14.4916V8.02177L14.4978 8.03433ZM23.479 14.4743C23.4852 14.4178 23.4978 14.3865 23.4915 14.3488C23.435 12.5285 23.1714 10.7396 22.6631 8.9884C22.638 8.90053 22.4936 8.80637 22.3995 8.78754C20.73 8.54902 19.0606 8.31678 17.3911 8.10965C16.7761 8.03433 16.1547 8.04688 15.5334 8.0155V14.4743H23.479ZM14.4916 15.5288H6.546C6.53344 15.5728 6.52717 15.5916 6.52717 15.6104C6.57738 17.4433 6.84725 19.2384 7.34934 21.0022C7.37444 21.0901 7.51252 21.1905 7.60666 21.2031C9.28238 21.4416 10.9644 21.6801 12.6464 21.881C13.2489 21.9563 13.864 21.9438 14.4853 21.9751V15.5288H14.4916ZM15.5334 15.5163V21.9626C15.615 21.9626 15.6715 21.9626 15.728 21.9626C17.9999 21.9249 20.2342 21.6111 22.4622 21.1905C22.5501 21.1717 22.6568 21.0336 22.6756 20.9395C22.9141 19.7594 23.1652 18.5731 23.3597 17.3868C23.4601 16.7779 23.4601 16.1503 23.5041 15.5163H15.5334ZM7.80122 22.2576C7.76984 22.2827 7.73846 22.3015 7.71336 22.3266C8.1213 23.1426 8.49159 23.9837 8.94975 24.7746C9.78448 26.212 10.8451 27.4485 12.32 28.2708C12.9853 28.6411 13.6945 28.8985 14.4916 28.955V22.9732C12.2322 22.9418 10.0104 22.6781 7.8075 22.2639L7.80122 22.2576ZM7.73846 7.75187C10.0041 7.31877 12.2384 7.06142 14.479 7.03003V1.06078C14.4037 1.06078 14.3598 1.06078 14.3096 1.06078C14.2405 1.06706 14.1715 1.07961 14.1087 1.09217C13.0983 1.26792 12.2008 1.70729 11.4037 2.34125C9.62757 3.74098 8.56691 5.6303 7.73846 7.75815V7.75187ZM22.274 7.75187C21.5773 5.91904 20.6735 4.26824 19.2928 2.925C18.5271 2.17806 17.661 1.59431 16.6317 1.27419C16.2803 1.16749 15.91 1.10472 15.5271 1.01684V7.03003C17.7928 7.06142 20.0271 7.31877 22.274 7.75187ZM15.5334 22.9669V28.9487C15.6715 28.9361 15.7844 28.9299 15.8974 28.911C16.7259 28.7667 17.4853 28.4528 18.1819 27.9758C20.2279 26.576 21.3827 24.5361 22.2865 22.245C20.0271 22.6781 17.7991 22.9355 15.5397 22.9669H15.5334ZM5.52299 14.4806C5.56692 12.6352 5.82424 10.8275 6.29495 9.05745C6.23847 9.03862 6.21964 9.02606 6.20081 9.03234C4.864 9.26458 3.53346 9.49055 2.19664 9.72907C2.10878 9.74162 2.00208 9.8546 1.9707 9.94248C1.74476 10.6455 1.48744 11.3485 1.33681 12.0703C1.16736 12.8549 1.09832 13.6584 0.985351 14.4806H5.51671H5.52299ZM28.9769 14.4806C28.9204 12.8738 28.6003 11.361 28.0229 9.89854C27.9915 9.81694 27.866 9.73534 27.7718 9.71651C26.9183 9.55959 26.0647 9.40895 25.2112 9.26458C24.7279 9.18298 24.2384 9.10139 23.7049 9.01351C24.2007 10.8338 24.4455 12.6415 24.4957 14.4869H28.9769V14.4806ZM6.31378 20.9897C5.81169 19.1568 5.5732 17.3491 5.51671 15.5288H1.03556C1.09205 17.1106 1.40585 18.6108 1.9707 20.0544C2.00836 20.1549 2.14643 20.2553 2.25313 20.2804C3.01881 20.4248 3.79078 20.5566 4.55647 20.6884C5.12132 20.7888 5.68617 20.883 6.31378 20.9897ZM23.7049 20.9897C25.1296 20.7449 26.4915 20.5126 27.8534 20.2678C27.9225 20.2553 28.0103 20.1549 28.0354 20.0795C28.2865 19.2384 28.5564 18.4036 28.7509 17.55C28.8953 16.8909 28.9329 16.2067 29.0208 15.5226H24.502C24.458 17.368 24.207 19.1694 23.7175 20.9897H23.7049ZM2.56066 8.59924C2.66735 8.59924 2.73639 8.61179 2.79915 8.59924C3.97906 8.3921 5.15897 8.17869 6.34516 7.99039C6.55855 7.95273 6.66524 7.87741 6.728 7.67655C7.34934 5.76212 8.34724 4.07365 9.72171 2.60488C9.97904 2.3287 10.2615 2.0839 10.5313 1.82655C10.5125 1.80145 10.4874 1.78262 10.4686 1.75751C6.97277 3.01915 4.3368 5.28508 2.56066 8.60552V8.59924ZM27.4706 8.6369C25.6756 5.28508 23.0396 3.01915 19.4999 1.80145C19.5376 1.8956 19.6317 1.93326 19.6945 1.99603C20.0522 2.36636 20.4225 2.73042 20.7551 3.12586C21.8911 4.47537 22.7384 5.99436 23.2844 7.67655C23.3409 7.85858 23.4225 7.959 23.6359 7.99039C24.4957 8.1222 25.3493 8.2854 26.2028 8.42977C26.6045 8.49881 26.9999 8.56158 27.4706 8.6369ZM10.5313 28.2269C10.4874 28.1704 10.4748 28.1453 10.456 28.1264C8.69871 26.4882 7.45603 24.5298 6.69662 22.2513C6.66524 22.1572 6.52089 22.0505 6.4142 22.0254C5.66734 21.881 4.92048 21.7554 4.16735 21.6236C3.6527 21.5358 3.13178 21.4479 2.60459 21.36C3.37655 23.8268 7.51252 27.4109 10.5313 28.2206V28.2269ZM19.5501 28.2017C22.2112 27.6557 26.9371 23.5632 27.3953 21.3788C27.3325 21.3788 27.276 21.3788 27.2195 21.3914C26.0459 21.5923 24.8785 21.8057 23.7049 21.994C23.4539 22.0316 23.3409 22.1383 23.2719 22.3706C22.776 23.8958 22.0292 25.2956 21.025 26.5447C20.5543 27.1221 20.0334 27.6682 19.5564 28.2017H19.5501Z" fill="#11FFEE"/>
</svg>
