<svg width="323" height="50" viewBox="0 0 323 50" fill="none" xmlns="http://www.w3.org/2000/svg">
<path d="M27 25.5H287" stroke="#141F55" stroke-width="3"/>
<circle cx="25" cy="25" r="25" fill="#191446"/>
<circle cx="25" cy="25" r="19" fill="#11FFEE"/>
<g clip-path="url(#clip0_43_127)">
<path d="M19.2432 38.669L10.3243 29.5655C10.3243 29.5655 10 28.2414 10.3243 27.7448L12.7568 25.2621C12.7568 25.2621 14.054 24.7655 14.5405 25.2621L20.054 30.8897L35.2973 15.331C35.2973 15.331 36.5946 14.8345 37.0811 15.331L39.5135 17.8138C39.5135 17.8138 40 19.1379 39.5135 19.6345L21.027 38.669C21.027 38.669 19.7297 39.1655 19.2432 38.669Z" fill="white"/>
</g>
<circle cx="116" cy="25" r="25" fill="#191446"/>
<circle cx="116" cy="25" r="19" fill="#11FFEE"/>
<circle cx="207" cy="25" r="25" fill="#191446"/>
<circle cx="207" cy="25" r="19" fill="#11FFEE"/>
<path d="M206.956 34.2386C205.684 34.2386 204.55 34.0199 203.556 33.5824C202.567 33.1392 201.786 32.5312 201.212 31.7585C200.644 30.9801 200.351 30.0824 200.334 29.0653H204.05C204.073 29.4915 204.212 29.8665 204.468 30.1903C204.729 30.5085 205.076 30.7557 205.507 30.9318C205.939 31.108 206.425 31.196 206.965 31.196C207.527 31.196 208.025 31.0966 208.456 30.8977C208.888 30.6989 209.226 30.4233 209.471 30.071C209.715 29.7187 209.837 29.3125 209.837 28.8523C209.837 28.3864 209.706 27.9744 209.445 27.6165C209.189 27.2528 208.82 26.9687 208.337 26.7642C207.86 26.5597 207.292 26.4574 206.632 26.4574H205.005V23.7472H206.632C207.189 23.7472 207.681 23.6506 208.107 23.4574C208.539 23.2642 208.874 22.9972 209.113 22.6562C209.351 22.3097 209.471 21.9062 209.471 21.446C209.471 21.0085 209.365 20.625 209.155 20.2955C208.951 19.9602 208.661 19.6989 208.286 19.5114C207.917 19.3239 207.485 19.2301 206.99 19.2301C206.49 19.2301 206.033 19.321 205.618 19.5028C205.203 19.679 204.871 19.9318 204.621 20.2614C204.371 20.5909 204.238 20.9773 204.221 21.4205H200.684C200.701 20.4148 200.988 19.5284 201.544 18.7614C202.101 17.9943 202.851 17.3949 203.794 16.9631C204.743 16.5256 205.814 16.3068 207.007 16.3068C208.212 16.3068 209.266 16.5256 210.169 16.9631C211.073 17.4006 211.775 17.9915 212.275 18.7358C212.78 19.4744 213.03 20.304 213.025 21.2244C213.03 22.2017 212.726 23.017 212.113 23.6705C211.505 24.3239 210.712 24.7386 209.735 24.9148V25.0511C211.019 25.2159 211.996 25.6619 212.667 26.3892C213.343 27.1108 213.678 28.0142 213.672 29.0994C213.678 30.0938 213.391 30.9773 212.811 31.75C212.238 32.5227 211.445 33.1307 210.434 33.5739C209.422 34.017 208.263 34.2386 206.956 34.2386Z" fill="white"/>
<circle cx="298" cy="25" r="25" fill="#191446"/>
<circle cx="298" cy="25" r="19" fill="#DDDDDD"/>
<path d="M291.518 30.9318V28.0256L298.805 16.5455H301.31V20.5682H299.827L295.234 27.8381V27.9744H305.589V30.9318H291.518ZM299.896 34V30.0455L299.964 28.7585V16.5455H303.424V34H299.896Z" fill="#747989"/>
<path d="M110.063 38.669L101.144 29.5655C101.144 29.5655 100.82 28.2414 101.144 27.7448L103.577 25.2621C103.577 25.2621 104.874 24.7655 105.36 25.2621L110.874 30.8897L126.117 15.331C126.117 15.331 127.414 14.8345 127.901 15.331L130.333 17.8138C130.333 17.8138 130.82 19.1379 130.333 19.6345L111.847 38.669C111.847 38.669 110.55 39.1655 110.063 38.669Z" fill="white"/>
<defs>
<clipPath id="clip0_43_127">
<rect width="30" height="24" fill="white" transform="translate(10 15)"/>
</clipPath>
</defs>
</svg>
