<svg width="129" height="124" viewBox="0 0 129 124" fill="none" xmlns="http://www.w3.org/2000/svg">
<path fill-rule="evenodd" clip-rule="evenodd" d="M31.9901 49.5891L40.6854 62.6368L0 123.812H44.7077L63.7058 92.6623L82.4843 123.812H128.086L87.4004 62.4089L127.192 2.57809H82.2569L64.3801 32.3913L54.1009 15.2564L49.0907 23.0378L64.3801 48.5202L86.9535 10.894H111.691L77.4349 62.401L112.616 115.496H87.1652L63.7528 76.6513L40.0582 115.496H15.5011L50.6588 62.629L36.8905 41.9727L31.9901 49.5891Z" fill="white"/>
<path fill-rule="evenodd" clip-rule="evenodd" d="M26.1567 0C35.448 0 42.9829 7.55352 42.9829 16.8677C42.9829 26.1819 35.448 33.7354 26.1567 33.7354C16.8655 33.7354 9.33057 26.1819 9.33057 16.8677C9.33057 7.55352 16.8655 0 26.1567 0Z" fill="white"/>
</svg>
